<?xml version="1.0" encoding="UTF-8"?>
<svg version="1.1" xmlns="http://www.w3.org/2000/svg" width="1024" height="1024">
<path d="M0 0 C337.92 0 675.84 0 1024 0 C1024 337.92 1024 675.84 1024 1024 C686.08 1024 348.16 1024 0 1024 C0 686.08 0 348.16 0 0 Z " fill="#FEFCFD" transform="translate(0,0)"/>
<path d="M0 0 C1.80658081 0.00131424 1.80658081 0.00131424 3.6496582 0.00265503 C65.37907256 0.15026707 126.6177686 15.38081665 178.27197266 50.10839844 C181.53421259 52.26548495 184.85994843 54.32060337 188.1875 56.375 C189.0125 55.86710937 189.8375 55.35921875 190.6875 54.8359375 C197.09504424 50.98258074 203.48688082 47.62070953 210.5 45 C211.13228516 44.76200684 211.76457031 44.52401367 212.41601562 44.27880859 C230.45126818 37.79826577 251.5599449 37.71348236 269.1875 45.375 C270.2703125 45.83261719 271.353125 46.29023438 272.46875 46.76171875 C290.15813379 54.91402315 303.97876296 70.2076295 310.7578125 88.42578125 C316.95645646 106.15812497 317.7139627 125.59306391 311.1875 143.375 C310.82527344 144.41527344 310.46304688 145.45554687 310.08984375 146.52734375 C305.07806841 159.72785031 296.29322621 172.00658983 285.0625 180.625 C283.639375 181.98625 283.639375 181.98625 282.1875 183.375 C282.48207742 187.38822878 283.62241402 190.96168992 284.98046875 194.73046875 C290.82704634 211.39096043 295.78641886 228.2172203 300.4375 245.25 C300.72910004 246.31471527 301.02070007 247.37943054 301.32113647 248.47640991 C312.87774867 290.76279949 312.87774867 290.76279949 315.5625 306.625 C315.80806641 307.98625 315.80806641 307.98625 316.05859375 309.375 C316.72338703 313.15147275 317.1875 316.51946549 317.1875 320.375 C318.48880859 320.37886719 318.48880859 320.37886719 319.81640625 320.3828125 C330.04249678 320.68746266 339.90792346 322.24652364 349.9375 324.1875 C350.92123093 324.37448456 350.92123093 324.37448456 351.92483521 324.56524658 C376.0350895 329.18321613 376.0350895 329.18321613 380.54980469 333.78051758 C382.1875 336.375 382.1875 336.375 382.1875 340 C381.1875 343.375 381.1875 343.375 379.5625 345.3125 C372.91707139 348.2854549 365.52153185 345.36673512 358.875 343.625 C345.76527355 340.3159012 332.57437702 338.20458913 319.1875 336.375 C319.20321045 337.43187012 319.2189209 338.48874023 319.23510742 339.57763672 C319.29042819 343.59220401 319.32421125 347.60673971 319.35229492 351.62158203 C319.36715376 353.34169219 319.38744656 355.06176611 319.41381836 356.78173828 C319.60690552 369.72236417 319.32256666 382.96980002 315.1875 395.375 C315.99058594 395.61605469 316.79367187 395.85710937 317.62109375 396.10546875 C332.10117808 401.2599347 364.04040361 414.08080723 371.1875 428.375 C371.72785146 432.42763598 371.52949395 433.91230231 369.0625 437.25 C365.57547541 439.827366 364.43919127 439.90202729 360.1875 439.375 C357.58960814 438.00768849 355.28971287 436.63465811 352.875 435 C351.45170872 434.07629207 350.02718889 433.15447488 348.6015625 432.234375 C347.87227539 431.75935547 347.14298828 431.28433594 346.39160156 430.79492188 C334.78345648 423.316746 322.78087677 417.01758934 310.1875 411.375 C310.06246094 412.25800781 309.93742188 413.14101563 309.80859375 414.05078125 C306.93327843 429.44004751 296.72487852 445.74057077 287.32348633 458.01123047 C284.20520516 461.8018291 284.20520516 461.8018291 283.1875 466.375 C284.9473053 468.85904466 284.9473053 468.85904466 287.5 471.3125 C288.4362331 472.29051294 289.36839739 473.27243387 290.296875 474.2578125 C290.77833984 474.76860352 291.25980469 475.27939453 291.75585938 475.80566406 C299.66615698 484.47677474 306.0548868 494.41100959 312.1875 504.375 C312.75082031 505.24511719 313.31414063 506.11523438 313.89453125 507.01171875 C316.21553 510.77774703 317.1875 512.73232562 317.1875 517.25 C316.18125051 520.39452966 315.68986394 521.38343971 313.1875 523.375 C310.00459331 524.39278993 307.38157937 524.34664431 304.1875 523.375 C301.13045279 520.51775979 299.26197346 516.9803218 297.1875 513.375 C295.62402495 510.75852972 294.0352568 508.15815729 292.4375 505.5625 C291.81077393 504.53999146 291.81077393 504.53999146 291.17138672 503.49682617 C285.57922172 494.55295366 278.70067413 486.7532877 271.1875 479.375 C268.22979956 480.69991189 266.23036081 482.11551968 264.0078125 484.46484375 C263.41581055 485.07900146 262.82380859 485.69315918 262.21386719 486.32592773 C261.27269043 487.30928101 261.27269043 487.30928101 260.3125 488.3125 C253.865909 494.90187526 247.14984893 500.73168034 239.74853516 506.21533203 C238.35497515 507.2505854 236.97892536 508.30931413 235.60546875 509.37109375 C204.57312561 532.87748281 168.28968969 548.47879249 131.625 560.75 C130.88603485 560.99753021 130.1470697 561.24506042 129.38571167 561.50009155 C112.36091804 567.17185767 95.35849091 571.83753706 77.6875 575 C76.87065735 575.14874573 76.0538147 575.29749146 75.21221924 575.45074463 C60.92763715 578.04525786 46.65053963 580.05361524 32.1875 581.375 C30.85972534 581.5153064 30.85972534 581.5153064 29.50512695 581.65844727 C19.89108868 582.60119686 10.27557763 582.57535806 0.625 582.5625 C-0.28256042 582.56156342 -1.19012085 582.56062683 -2.12518311 582.55966187 C-67.01305448 582.41499149 -131.55503608 567.04716876 -189.8125 538.375 C-191.34898193 537.62114014 -191.34898193 537.62114014 -192.91650391 536.85205078 C-208.18073605 529.296456 -222.67649613 520.87134451 -236.8125 511.375 C-237.8344043 510.6929248 -237.8344043 510.6929248 -238.87695312 509.99707031 C-251.21766444 501.69548529 -262.4106211 491.99065682 -272.8125 481.375 C-276.79521639 483.19264733 -279.17790247 485.73544425 -281.9375 489.0625 C-282.41541992 489.63339355 -282.89333984 490.20428711 -283.38574219 490.79248047 C-288.72562863 497.29925706 -293.30122624 504.28001442 -297.8125 511.375 C-298.52019531 512.48359375 -299.22789062 513.5921875 -299.95703125 514.734375 C-301.15550697 516.61874009 -302.34905581 518.50625844 -303.53515625 520.3984375 C-304.8125 522.375 -304.8125 522.375 -305.8125 523.375 C-310.0822001 523.90329961 -313.64843889 524.08479336 -317.375 521.8125 C-319.40067536 518.37765917 -319.21566181 516.34674262 -318.8125 512.375 C-317.4949753 509.2966129 -315.75694252 506.55471 -313.9375 503.75 C-313.43790771 502.95948242 -312.93831543 502.16896484 -312.42358398 501.35449219 C-304.60961888 489.16732486 -295.31169348 478.26153273 -285.8125 467.375 C-286.14121094 466.88773438 -286.46992188 466.40046875 -286.80859375 465.8984375 C-287.85242219 464.34259565 -288.88930216 462.78208458 -289.921875 461.21875 C-291.20473269 459.28916241 -292.50760232 457.37275945 -293.828125 455.46875 C-298.77063696 448.14387616 -302.85266339 440.58813933 -306.6875 432.625 C-307.3839563 431.18809814 -307.3839563 431.18809814 -308.09448242 429.72216797 C-310.91953818 423.73112818 -313.1117152 417.77692842 -314.8125 411.375 C-321.6523404 413.98190653 -328.20534212 416.91429858 -334.6875 420.3125 C-335.58154541 420.77760986 -336.47559082 421.24271973 -337.39672852 421.72192383 C-345.00735562 425.7669238 -352.18741512 430.35956363 -359.23974609 435.31030273 C-362.68100711 437.66441699 -365.0269781 439.25993509 -369.19921875 439.87109375 C-373.06309358 439.13759285 -374.50732103 437.49377154 -376.8125 434.375 C-377.17776398 431.16407478 -377.35781652 429.19970708 -375.546875 426.4609375 C-363.97254697 416.48149719 -349.93575574 409.3759955 -336.5 402.25 C-335.63536133 401.78875732 -334.77072266 401.32751465 -333.87988281 400.85229492 C-329.2454313 398.44021993 -324.89637783 396.59622841 -319.8125 395.375 C-320.01746094 394.26382812 -320.22242188 393.15265625 -320.43359375 392.0078125 C-320.70593403 390.50524545 -320.97805773 389.00263913 -321.25 387.5 C-321.38470703 386.77296875 -321.51941406 386.0459375 -321.65820312 385.296875 C-323.67282796 374.09359542 -323.94180228 363.10134569 -323.875 351.75 C-323.86997303 350.25390775 -323.86541225 348.75781387 -323.86132812 347.26171875 C-323.85042185 343.63277781 -323.83322382 340.00389973 -323.8125 336.375 C-346.63203806 339.4544917 -346.63203806 339.4544917 -368.97583008 344.8503418 C-373.82648593 346.30419293 -377.80029448 346.69629523 -382.8125 346.375 C-385.3125 344.8125 -385.3125 344.8125 -386.8125 342.375 C-387.4375 338.9375 -387.4375 338.9375 -386.8125 335.375 C-381.96445197 330.19039326 -376.77468475 328.85517506 -370 327.25 C-368.46520996 326.87053223 -368.46520996 326.87053223 -366.89941406 326.48339844 C-351.96509615 322.86309929 -337.10126584 320.80150395 -321.8125 319.375 C-321.68834717 318.70597656 -321.56419434 318.03695313 -321.4362793 317.34765625 C-316.04135285 288.7792319 -308.25329413 260.73995365 -299.62402344 232.98779297 C-298.62990349 229.78710957 -297.64747754 226.58289462 -296.6640625 223.37890625 C-292.54273401 209.98868842 -288.3388191 196.63445242 -283.8125 183.375 C-284.97265625 182.35792969 -284.97265625 182.35792969 -286.15625 181.3203125 C-301.69866271 167.51678853 -311.58020171 152.47331316 -316.8125 132.375 C-317.01488281 131.6015625 -317.21726562 130.828125 -317.42578125 130.03125 C-320.39693074 109.62335452 -316.29718274 89.32306285 -304.6875 72.25 C-302.8112524 69.86204851 -300.88136659 67.59678282 -298.8125 65.375 C-298.008125 64.50875 -297.20375 63.6425 -296.375 62.75 C-295.529375 61.96625 -294.68375 61.1825 -293.8125 60.375 C-293.23757813 59.78332031 -292.66265625 59.19164062 -292.0703125 58.58203125 C-277.98449996 44.84171977 -258.96146272 39.69488617 -239.76635742 39.91064453 C-222.53384297 40.44701278 -208.97545967 46.66826396 -193.8125 54.375 C-192.47962442 55.0425814 -191.1464374 55.70954284 -189.8125 56.375 C-189.04808594 55.82972656 -188.28367187 55.28445313 -187.49609375 54.72265625 C-179.16328399 48.85659884 -170.65585416 43.43879142 -161.8125 38.375 C-161.21211914 38.03082031 -160.61173828 37.68664062 -159.99316406 37.33203125 C-133.02985937 22.04159665 -102.23920507 11.90613446 -71.8125 6.375 C-69.89702743 6.00576811 -67.98166463 5.63596635 -66.06640625 5.265625 C-64.12808723 4.90365363 -62.18929608 4.54419963 -60.25 4.1875 C-59.4254834 4.03224854 -58.6009668 3.87699707 -57.75146484 3.71704102 C-38.65625145 0.38926709 -19.33311285 -0.03456874 0 0 Z " fill="#FEFCFD" transform="translate(514.8125,214.625)"/>
<path d="M0 0 C1.80658081 0.00131424 1.80658081 0.00131424 3.6496582 0.00265503 C65.37907256 0.15026707 126.6177686 15.38081665 178.27197266 50.10839844 C181.53421259 52.26548495 184.85994843 54.32060337 188.1875 56.375 C189.0125 55.86710937 189.8375 55.35921875 190.6875 54.8359375 C197.09504424 50.98258074 203.48688082 47.62070953 210.5 45 C211.13228516 44.76200684 211.76457031 44.52401367 212.41601562 44.27880859 C230.45126818 37.79826577 251.5599449 37.71348236 269.1875 45.375 C270.2703125 45.83261719 271.353125 46.29023438 272.46875 46.76171875 C290.15813379 54.91402315 303.97876296 70.2076295 310.7578125 88.42578125 C316.95645646 106.15812497 317.7139627 125.59306391 311.1875 143.375 C310.82527344 144.41527344 310.46304688 145.45554687 310.08984375 146.52734375 C305.07806841 159.72785031 296.29322621 172.00658983 285.0625 180.625 C283.639375 181.98625 283.639375 181.98625 282.1875 183.375 C282.48207742 187.38822878 283.62241402 190.96168992 284.98046875 194.73046875 C290.82704634 211.39096043 295.78641886 228.2172203 300.4375 245.25 C300.72910004 246.31471527 301.02070007 247.37943054 301.32113647 248.47640991 C312.87774867 290.76279949 312.87774867 290.76279949 315.5625 306.625 C315.80806641 307.98625 315.80806641 307.98625 316.05859375 309.375 C316.72338703 313.15147275 317.1875 316.51946549 317.1875 320.375 C318.48880859 320.37886719 318.48880859 320.37886719 319.81640625 320.3828125 C330.04249678 320.68746266 339.90792346 322.24652364 349.9375 324.1875 C350.92123093 324.37448456 350.92123093 324.37448456 351.92483521 324.56524658 C376.0350895 329.18321613 376.0350895 329.18321613 380.54980469 333.78051758 C382.1875 336.375 382.1875 336.375 382.1875 340 C381.1875 343.375 381.1875 343.375 379.5625 345.3125 C372.91707139 348.2854549 365.52153185 345.36673512 358.875 343.625 C345.76527355 340.3159012 332.57437702 338.20458913 319.1875 336.375 C319.20321045 337.43187012 319.2189209 338.48874023 319.23510742 339.57763672 C319.29042819 343.59220401 319.32421125 347.60673971 319.35229492 351.62158203 C319.36715376 353.34169219 319.38744656 355.06176611 319.41381836 356.78173828 C319.60690552 369.72236417 319.32256666 382.96980002 315.1875 395.375 C315.99058594 395.61605469 316.79367187 395.85710937 317.62109375 396.10546875 C332.10117808 401.2599347 364.04040361 414.08080723 371.1875 428.375 C371.72785146 432.42763598 371.52949395 433.91230231 369.0625 437.25 C365.57547541 439.827366 364.43919127 439.90202729 360.1875 439.375 C357.58960814 438.00768849 355.28971287 436.63465811 352.875 435 C351.45170872 434.07629207 350.02718889 433.15447488 348.6015625 432.234375 C347.87227539 431.75935547 347.14298828 431.28433594 346.39160156 430.79492188 C334.78345648 423.316746 322.78087677 417.01758934 310.1875 411.375 C310.06246094 412.25800781 309.93742188 413.14101563 309.80859375 414.05078125 C306.93327843 429.44004751 296.72487852 445.74057077 287.32348633 458.01123047 C284.20520516 461.8018291 284.20520516 461.8018291 283.1875 466.375 C284.9473053 468.85904466 284.9473053 468.85904466 287.5 471.3125 C288.4362331 472.29051294 289.36839739 473.27243387 290.296875 474.2578125 C290.77833984 474.76860352 291.25980469 475.27939453 291.75585938 475.80566406 C299.66615698 484.47677474 306.0548868 494.41100959 312.1875 504.375 C312.75082031 505.24511719 313.31414063 506.11523438 313.89453125 507.01171875 C316.21553 510.77774703 317.1875 512.73232562 317.1875 517.25 C316.18125051 520.39452966 315.68986394 521.38343971 313.1875 523.375 C310.00459331 524.39278993 307.38157937 524.34664431 304.1875 523.375 C301.13045279 520.51775979 299.26197346 516.9803218 297.1875 513.375 C295.62402495 510.75852972 294.0352568 508.15815729 292.4375 505.5625 C291.81077393 504.53999146 291.81077393 504.53999146 291.17138672 503.49682617 C285.57922172 494.55295366 278.70067413 486.7532877 271.1875 479.375 C268.22979956 480.69991189 266.23036081 482.11551968 264.0078125 484.46484375 C263.41581055 485.07900146 262.82380859 485.69315918 262.21386719 486.32592773 C261.27269043 487.30928101 261.27269043 487.30928101 260.3125 488.3125 C253.865909 494.90187526 247.14984893 500.73168034 239.74853516 506.21533203 C238.35497515 507.2505854 236.97892536 508.30931413 235.60546875 509.37109375 C204.57312561 532.87748281 168.28968969 548.47879249 131.625 560.75 C130.88603485 560.99753021 130.1470697 561.24506042 129.38571167 561.50009155 C112.36091804 567.17185767 95.35849091 571.83753706 77.6875 575 C76.87065735 575.14874573 76.0538147 575.29749146 75.21221924 575.45074463 C60.92763715 578.04525786 46.65053963 580.05361524 32.1875 581.375 C30.85972534 581.5153064 30.85972534 581.5153064 29.50512695 581.65844727 C19.89108868 582.60119686 10.27557763 582.57535806 0.625 582.5625 C-0.28256042 582.56156342 -1.19012085 582.56062683 -2.12518311 582.55966187 C-67.01305448 582.41499149 -131.55503608 567.04716876 -189.8125 538.375 C-191.34898193 537.62114014 -191.34898193 537.62114014 -192.91650391 536.85205078 C-208.18073605 529.296456 -222.67649613 520.87134451 -236.8125 511.375 C-237.8344043 510.6929248 -237.8344043 510.6929248 -238.87695312 509.99707031 C-251.21766444 501.69548529 -262.4106211 491.99065682 -272.8125 481.375 C-276.79521639 483.19264733 -279.17790247 485.73544425 -281.9375 489.0625 C-282.41541992 489.63339355 -282.89333984 490.20428711 -283.38574219 490.79248047 C-288.72562863 497.29925706 -293.30122624 504.28001442 -297.8125 511.375 C-298.52019531 512.48359375 -299.22789062 513.5921875 -299.95703125 514.734375 C-301.15550697 516.61874009 -302.34905581 518.50625844 -303.53515625 520.3984375 C-304.8125 522.375 -304.8125 522.375 -305.8125 523.375 C-310.0822001 523.90329961 -313.64843889 524.08479336 -317.375 521.8125 C-319.40067536 518.37765917 -319.21566181 516.34674262 -318.8125 512.375 C-317.4949753 509.2966129 -315.75694252 506.55471 -313.9375 503.75 C-313.43790771 502.95948242 -312.93831543 502.16896484 -312.42358398 501.35449219 C-304.60961888 489.16732486 -295.31169348 478.26153273 -285.8125 467.375 C-286.14121094 466.88773438 -286.46992188 466.40046875 -286.80859375 465.8984375 C-287.85242219 464.34259565 -288.88930216 462.78208458 -289.921875 461.21875 C-291.20473269 459.28916241 -292.50760232 457.37275945 -293.828125 455.46875 C-298.77063696 448.14387616 -302.85266339 440.58813933 -306.6875 432.625 C-307.3839563 431.18809814 -307.3839563 431.18809814 -308.09448242 429.72216797 C-310.91953818 423.73112818 -313.1117152 417.77692842 -314.8125 411.375 C-321.6523404 413.98190653 -328.20534212 416.91429858 -334.6875 420.3125 C-335.58154541 420.77760986 -336.47559082 421.24271973 -337.39672852 421.72192383 C-345.00735562 425.7669238 -352.18741512 430.35956363 -359.23974609 435.31030273 C-362.68100711 437.66441699 -365.0269781 439.25993509 -369.19921875 439.87109375 C-373.06309358 439.13759285 -374.50732103 437.49377154 -376.8125 434.375 C-377.17776398 431.16407478 -377.35781652 429.19970708 -375.546875 426.4609375 C-363.97254697 416.48149719 -349.93575574 409.3759955 -336.5 402.25 C-335.63536133 401.78875732 -334.77072266 401.32751465 -333.87988281 400.85229492 C-329.2454313 398.44021993 -324.89637783 396.59622841 -319.8125 395.375 C-320.01746094 394.26382812 -320.22242188 393.15265625 -320.43359375 392.0078125 C-320.70593403 390.50524545 -320.97805773 389.00263913 -321.25 387.5 C-321.38470703 386.77296875 -321.51941406 386.0459375 -321.65820312 385.296875 C-323.67282796 374.09359542 -323.94180228 363.10134569 -323.875 351.75 C-323.86997303 350.25390775 -323.86541225 348.75781387 -323.86132812 347.26171875 C-323.85042185 343.63277781 -323.83322382 340.00389973 -323.8125 336.375 C-346.63203806 339.4544917 -346.63203806 339.4544917 -368.97583008 344.8503418 C-373.82648593 346.30419293 -377.80029448 346.69629523 -382.8125 346.375 C-385.3125 344.8125 -385.3125 344.8125 -386.8125 342.375 C-387.4375 338.9375 -387.4375 338.9375 -386.8125 335.375 C-381.96445197 330.19039326 -376.77468475 328.85517506 -370 327.25 C-368.46520996 326.87053223 -368.46520996 326.87053223 -366.89941406 326.48339844 C-351.96509615 322.86309929 -337.10126584 320.80150395 -321.8125 319.375 C-321.68834717 318.70597656 -321.56419434 318.03695313 -321.4362793 317.34765625 C-316.04135285 288.7792319 -308.25329413 260.73995365 -299.62402344 232.98779297 C-298.62990349 229.78710957 -297.64747754 226.58289462 -296.6640625 223.37890625 C-292.54273401 209.98868842 -288.3388191 196.63445242 -283.8125 183.375 C-284.97265625 182.35792969 -284.97265625 182.35792969 -286.15625 181.3203125 C-301.69866271 167.51678853 -311.58020171 152.47331316 -316.8125 132.375 C-317.01488281 131.6015625 -317.21726562 130.828125 -317.42578125 130.03125 C-320.39693074 109.62335452 -316.29718274 89.32306285 -304.6875 72.25 C-302.8112524 69.86204851 -300.88136659 67.59678282 -298.8125 65.375 C-298.008125 64.50875 -297.20375 63.6425 -296.375 62.75 C-295.529375 61.96625 -294.68375 61.1825 -293.8125 60.375 C-293.23757813 59.78332031 -292.66265625 59.19164062 -292.0703125 58.58203125 C-277.98449996 44.84171977 -258.96146272 39.69488617 -239.76635742 39.91064453 C-222.53384297 40.44701278 -208.97545967 46.66826396 -193.8125 54.375 C-192.47962442 55.0425814 -191.1464374 55.70954284 -189.8125 56.375 C-189.04808594 55.82972656 -188.28367187 55.28445313 -187.49609375 54.72265625 C-179.16328399 48.85659884 -170.65585416 43.43879142 -161.8125 38.375 C-161.21211914 38.03082031 -160.61173828 37.68664062 -159.99316406 37.33203125 C-133.02985937 22.04159665 -102.23920507 11.90613446 -71.8125 6.375 C-69.89702743 6.00576811 -67.98166463 5.63596635 -66.06640625 5.265625 C-64.12808723 4.90365363 -62.18929608 4.54419963 -60.25 4.1875 C-59.4254834 4.03224854 -58.6009668 3.87699707 -57.75146484 3.71704102 C-38.65625145 0.38926709 -19.33311285 -0.03456874 0 0 Z M-193.01904297 86.68310547 C-194.98036425 88.53335819 -196.95941457 90.3633201 -198.94140625 92.19140625 C-200.35690445 93.50245992 -201.77227085 94.81365591 -203.1875 96.125 C-203.84145752 96.72658936 -204.49541504 97.32817871 -205.16918945 97.94799805 C-209.70407895 102.17443881 -213.81338338 106.64135175 -217.8125 111.375 C-218.33166992 111.98279297 -218.85083984 112.59058594 -219.38574219 113.21679688 C-233.83970694 130.25939394 -244.88784977 148.38432276 -254.8125 168.375 C-255.43318359 169.60669922 -255.43318359 169.60669922 -256.06640625 170.86328125 C-271.27154685 201.12301651 -279.92129285 233.89454868 -289.09739685 266.34358215 C-290.25689319 270.43742924 -291.43638122 274.5244959 -292.640625 278.60546875 C-295.09330896 286.9351838 -297.35428497 295.25966599 -299.1875 303.75 C-299.35556152 304.51763672 -299.52362305 305.28527344 -299.69677734 306.07617188 C-300.62680433 310.60062748 -300.97091196 314.75668209 -300.8125 319.375 C-300.08063477 319.38958252 -299.34876953 319.40416504 -298.59472656 319.41918945 C-262.62499004 320.21025531 -227.49734925 324.58388439 -192.75 334 C-192.05081451 334.18782043 -191.35162903 334.37564087 -190.6312561 334.56915283 C-183.35715175 336.54080123 -176.33865546 338.51308029 -169.8125 342.375 C-168.41314987 345.17370027 -168.55984595 347.27998792 -168.8125 350.375 C-169.8125 352.25 -169.8125 352.25 -171.8125 353.375 C-178.62708271 353.89860636 -184.05011627 352.32386913 -190.5 350.25 C-210.78957403 344.04071804 -231.76150307 339.98567229 -252.8125 337.375 C-253.60366211 337.27203613 -254.39482422 337.16907227 -255.20996094 337.06298828 C-271.38810974 335.01237391 -287.53839116 335.16162288 -303.8125 335.375 C-303.8625552 340.40631723 -303.89852404 345.43748427 -303.92236328 350.46899414 C-303.93231874 352.17474905 -303.94588799 353.88048736 -303.96337891 355.58618164 C-304.71710189 371.88637063 -304.71710189 371.88637063 -300.8125 387.375 C-294.60656595 386.20416523 -288.48743294 384.82097289 -282.36645508 383.26855469 C-249.68231591 375.04330326 -216.37941029 371.83539794 -182.72265625 373.69921875 C-181.68375244 373.75553467 -180.64484863 373.81185059 -179.57446289 373.86987305 C-176.51225099 374.42991162 -175.04434904 375.23300207 -172.8125 377.375 C-172.31640625 379.56640625 -172.31640625 379.56640625 -172.375 381.9375 C-172.37693359 383.11505859 -172.37693359 383.11505859 -172.37890625 384.31640625 C-172.8125 386.375 -172.8125 386.375 -175.8125 388.375 C-178.64147971 388.52403093 -181.36964293 388.5588489 -184.1953125 388.5 C-185.92496482 388.48240584 -187.65461991 388.46508263 -189.38427734 388.44799805 C-190.29087097 388.43554047 -191.1974646 388.42308289 -192.13153076 388.4102478 C-226.46838054 387.97891788 -264.84386204 389.2633209 -296.8125 403.375 C-294.90724084 410.38990273 -292.45944619 416.88865101 -289.3125 423.4375 C-288.66752563 424.78581909 -288.66752563 424.78581909 -288.00952148 426.16137695 C-280.94016747 441.41103596 -280.94016747 441.41103596 -269.8125 453.375 C-269.38130859 453.03355957 -268.95011719 452.69211914 -268.50585938 452.34033203 C-218.56115853 412.9831694 -218.56115853 412.9831694 -199.5859375 414.66015625 C-196.8125 415.375 -196.8125 415.375 -194.875 417.0625 C-193.39924409 420.27443934 -193.74805788 422.03974802 -194.8125 425.375 C-198.27299792 428.63450941 -202.68560944 430.17073504 -207 432 C-221.64203763 438.38768552 -235.14296464 445.60953584 -247.8125 455.375 C-248.36292969 455.79378418 -248.91335938 456.21256836 -249.48046875 456.64404297 C-254.32052615 460.30867064 -254.32052615 460.30867064 -258.8125 464.375 C-259.13131049 467.49013843 -259.13131049 467.49013843 -256.8984375 469.6875 C-191.61641656 534.40512306 -87.09463761 561.62402276 5.0847168 561.61938477 C89.63231911 561.18877087 186.45061623 532.98302571 248.1875 473.375 C249.01636719 472.58609375 249.84523438 471.7971875 250.69921875 470.984375 C253.53428473 468.26492183 253.53428473 468.26492183 256.1875 465.375 C256.1875 464.715 256.1875 464.055 256.1875 463.375 C253.87360004 461.42597257 251.55560218 459.60656879 249.125 457.8125 C248.40054688 457.2752832 247.67609375 456.73806641 246.9296875 456.18457031 C232.03906 445.30146387 215.70625873 437.25772994 198.97070312 429.63232422 C196.20300717 428.36366976 193.7300049 427.07000327 191.1875 425.375 C190.41641566 418.43524096 190.41641566 418.43524096 192.6875 415.3125 C198.16615808 413.25800322 203.48684803 415.33977463 208.62109375 417.52734375 C210.62907826 418.44118603 212.63016275 419.37030371 214.625 420.3125 C216.21453491 421.05512085 216.21453491 421.05512085 217.83618164 421.81274414 C234.28424009 429.61794842 249.95969598 439.14120489 264.046875 450.7265625 C266.0013036 452.57837664 266.0013036 452.57837664 268.1875 452.375 C269.81381092 450.26294782 271.29335555 448.16374978 272.75 445.9375 C273.41165161 444.93227295 273.41165161 444.93227295 274.08666992 443.90673828 C286.75703284 424.88251571 286.75703284 424.88251571 292.1875 403.375 C278.16269947 398.78727264 264.32106154 394.89342795 249.75 392.5 C248.5935498 392.30962158 247.43709961 392.11924316 246.24560547 391.9230957 C242.56472513 391.35353982 238.88190548 390.84914095 235.1875 390.375 C234.45715546 390.28051575 233.72681091 390.18603149 232.97433472 390.08868408 C218.31216754 388.24784395 203.86762298 388.2391163 189.11401367 388.56689453 C186.21009957 388.62694453 183.30667561 388.66264669 180.40234375 388.6953125 C179.51812241 388.72223175 178.63390106 388.749151 177.72288513 388.77688599 C171.69652574 388.82678372 171.69652574 388.82678372 169.12719727 386.54638672 C167.43284712 382.6312009 167.86512934 379.34211198 169.1875 375.375 C207.4453058 368.1976562 249.90770335 376.00319626 287.00024414 385.85131836 C290.54504183 386.78463504 293.49573979 387.375 297.1875 387.375 C300.68809124 370.03873864 300.50718254 352.96901528 300.1875 335.375 C260.2542309 334.51777989 219.5952935 339.34011378 181.52368164 351.90209961 C177.296365 353.25200374 173.61610177 353.65965673 169.1875 353.375 C166.48963872 351.75628323 166.21249277 350.45331069 165.25 347.4375 C165.1875 344.375 165.1875 344.375 166.76171875 342.33203125 C171.87160838 338.2095599 178.92989451 337.08194984 185.1875 335.375 C186.0655127 335.13491211 186.94352539 334.89482422 187.84814453 334.64746094 C203.7998536 330.35072315 219.89292988 327.0724457 236.1875 324.375 C237.11755859 324.21902344 238.04761719 324.06304688 239.00585938 323.90234375 C258.24191499 320.7738424 277.74673529 320.22143992 297.1875 319.375 C295.24742358 296.37610683 288.5824198 274.34981061 282.17903137 252.2844696 C280.5050017 246.50897366 278.90210717 240.71670405 277.328125 234.91308594 C261.89959433 178.31148344 234.98742557 120.76742672 187.984375 83.61328125 C185.99146743 82.01839852 184.05820292 80.41046529 182.140625 78.73046875 C163.36382129 62.3004038 141.45750981 50.2272529 118.1875 41.375 C117.24229492 41.01164551 116.29708984 40.64829102 115.32324219 40.27392578 C92.18278422 31.49612346 68.01797338 25.6275743 43.43554688 22.65136719 C41.22862976 22.38005635 39.029551 22.07019032 36.828125 21.7578125 C-41.7761255 11.47099364 -134.58830474 31.24271616 -193.01904297 86.68310547 Z " fill="#C7B7DB" transform="translate(514.8125,214.625)"/>
<path d="M0 0 C0.65597168 0.16628906 1.31194336 0.33257812 1.98779297 0.50390625 C16.03847932 4.25168132 29.10715285 10.92603749 36.640625 23.8046875 C39.6241242 30.81762528 39.12061745 38.52719544 36.81640625 45.66796875 C26.85091439 67.20012262 6.17583803 79.40993879 -15.3125 87.5 C-18.16868943 88.51475643 -19.94379922 89 -23 89 C-21.46128602 104.97078993 -16.02655571 117.44544459 -4 128 C9.36324332 137.57926371 23.80035165 140.38182118 40 139 C47.27606075 137.59370254 53.19810747 135.12673065 59.296875 130.98828125 C62.02560371 129.40486757 63.95011386 129.39002277 67 130 C70.65599092 132.03110607 71.77130002 133.36204743 73.1875 137.3125 C72.96475854 141.69308214 72.11688695 143.22505255 69.1171875 146.30078125 C54.93318132 157.68462385 36.35493089 158.35619655 19 157 C0.9302078 154.58331323 -15.7954724 144.36682647 -26.8125 130 C-31 124.4664614 -31 124.4664614 -31 122 C-33.56914858 124.37152176 -35.65982084 126.85778619 -37.6875 129.6875 C-49.003783 144.82267751 -65.2904437 154.19058838 -84 157 C-101.69905176 158.44282316 -119.45482248 157.12747736 -133.82421875 145.52734375 C-136.45185107 142.8277215 -136.99531811 141.13577483 -137.125 137.375 C-135.7810498 133.3431494 -134.69824535 132.05458075 -131 130 C-127.64859433 129.22060333 -125.74866953 129.58609085 -122.74609375 131.24609375 C-121.51052734 132.02146484 -121.51052734 132.02146484 -120.25 132.8125 C-108.0457146 140.437925 -93.41777778 140.92746301 -79.5 137.875 C-66.69335822 134.02230554 -55.29350102 125.92089401 -48.24609375 114.44140625 C-44.08569436 106.29015354 -42.35802992 98.09396 -42 89 C-42.6084375 88.87625 -43.216875 88.7525 -43.84375 88.625 C-64.69037117 83.71991267 -85.8943314 69.61099552 -97.5703125 51.57421875 C-102.04654999 43.75998702 -102.77792844 37.021809 -102 28 C-101.09805631 24.96574379 -99.80038637 22.58992459 -98 20 C-97.34 19.01 -96.68 18.02 -96 17 C-74.20960412 -7.15320989 -28.83731982 -7.32651086 0 0 Z " fill="#C7B7DB" transform="translate(545,489)"/>
<path d="M0 0 C12.06774982 9.04466073 19.3776829 22.30571426 22 37 C23.73684955 54.95938245 18.6271217 70.92992312 7.5859375 85.09765625 C3.39777436 89.94746731 3.39777436 89.94746731 1 92 C0.01 92 -0.98 92 -2 92 C-2.35227661 91.25617065 -2.35227661 91.25617065 -2.71166992 90.49731445 C-18.4505788 57.5297126 -39.99479597 27.99199737 -66.40625 2.6953125 C-68 1 -68 1 -68 -1 C-44.97206426 -11.52608305 -22.1226372 -14.34501313 0 0 Z " fill="#FDFCFD" transform="translate(788,286)"/>
<path d="M0 0 C13.58473141 -0.52820341 25.40695485 3.62583022 37.15234375 10.1875 C32.86952624 15.26635578 28.4194765 20.12657267 23.83984375 24.9375 C17.98751473 31.14470959 12.37961587 37.4378995 7.15234375 44.1875 C6.70858398 44.75339844 6.26482422 45.31929688 5.80761719 45.90234375 C-7.94394939 63.49393534 -18.81852661 82.26629475 -28.84765625 102.1875 C-38.91591593 97.30234724 -45.27614942 86.84533808 -49.20703125 76.66796875 C-54.34800571 60.36958958 -54.52821158 45.02872796 -46.72265625 29.5625 C-38.4011592 14.9780733 -26.8097317 6.11635792 -10.84765625 1.1875 C-7.22660685 0.29869697 -3.7067198 0.24406386 0 0 Z " fill="#FDFBFD" transform="translate(269.84765625,275.8125)"/>
<path d="M0 0 C7.88986904 8.24849945 11.80598528 18.03668502 12.125 29.375 C11.82972153 39.86968911 8.56155295 50.26425274 0.828125 57.73046875 C-6.32685447 63.34629566 -12.85237404 65.52578404 -21.96484375 65.28515625 C-29.53209196 64.34037496 -35.59826274 60.43770024 -40.71875 54.89453125 C-47.94527889 45.36362453 -50.35099305 34.65562567 -49.25 22.875 C-46.94937068 12.94046429 -41.88256028 3.91106787 -33.3828125 -1.90625 C-21.80521449 -8.52202029 -10.95961303 -7.16590083 0 0 Z " fill="#C8B8DB" transform="translate(397.25,445.125)"/>
<path d="M0 0 C9.00845521 5.03862749 13.93226166 12.51364579 17.23828125 22.2421875 C19.40231852 34.52692435 17.76759904 46.14916218 11.15625 56.8046875 C6.09930955 63.3737523 -1.33686251 67.61880266 -9.5 68.9453125 C-18.57405429 69.29253397 -26.05622248 66.47378982 -32.7421875 60.33203125 C-40.73622321 51.05665488 -42.87365524 40.86573842 -42.6953125 28.98046875 C-41.77476759 18.79834393 -36.98412593 10.18195253 -29.375 3.4375 C-19.92026295 -3.14373853 -10.85412473 -5.09506979 0 0 Z " fill="#C8B8DB" transform="translate(659.375,441.5625)"/>
<path d="M0 0 C0 0.33 0 0.66 0 1 C-0.61488281 1.13277344 -1.22976563 1.26554688 -1.86328125 1.40234375 C-3.07564453 1.66724609 -3.07564453 1.66724609 -4.3125 1.9375 C-5.11300781 2.11152344 -5.91351563 2.28554687 -6.73828125 2.46484375 C-9.145401 2.99886159 -9.145401 2.99886159 -12 4 C-14.6875 3.5625 -14.6875 3.5625 -17 3 C-11.41161911 -0.10465605 -6.24532781 -0.10585301 0 0 Z " fill="#BDACD2" transform="translate(461,219)"/>
</svg>
